<svg width="26" height="26" viewBox="0 0 26 26" fill="none" xmlns="http://www.w3.org/2000/svg">
<circle cx="13.2422" cy="12.502" r="12.5" fill="black"/>
<path d="M11.7422 6.00195C11.7422 5.60413 11.9529 5.2226 12.328 4.94129C12.703 4.65999 13.2118 4.50195 13.7422 4.50195C14.2726 4.50195 14.7813 4.65999 15.1564 4.94129C15.5315 5.2226 15.7422 5.60413 15.7422 6.00195C15.7422 6.39978 15.5315 6.78131 15.1564 7.06261C14.7813 7.34392 14.2726 7.50195 13.7422 7.50195C13.2118 7.50195 12.703 7.34392 12.328 7.06261C11.9529 6.78131 11.7422 6.39978 11.7422 6.00195ZM9.74219 10.502C9.74219 9.94883 10.338 9.50195 11.0755 9.50195H13.7422C14.4797 9.50195 15.0755 9.94883 15.0755 10.502V17.502H16.4089C17.1464 17.502 17.7422 17.9488 17.7422 18.502C17.7422 19.0551 17.1464 19.502 16.4089 19.502H11.0755C10.338 19.502 9.74219 19.0551 9.74219 18.502C9.74219 17.9488 10.338 17.502 11.0755 17.502H12.4089V11.502H11.0755C10.338 11.502 9.74219 11.0551 9.74219 10.502Z" fill="#BDBDBD"/>
</svg>
